<svg width="360" height="74" viewBox="0 0 360 74" fill="none" xmlns="http://www.w3.org/2000/svg">
<path d="M94.7253 24.12C96.3653 24.12 97.7986 24.3 99.0253 24.66C100.252 25.02 101.239 25.4 101.985 25.8C102.732 26.2 103.185 26.4667 103.345 26.6L100.465 31.42C100.252 31.26 99.8853 31.0267 99.3653 30.72C98.8586 30.4133 98.252 30.14 97.5453 29.9C96.852 29.66 96.1253 29.54 95.3653 29.54C94.3386 29.54 93.5053 29.7267 92.8653 30.1C92.2386 30.46 91.9253 31 91.9253 31.72C91.9253 32.2133 92.092 32.66 92.4253 33.06C92.772 33.4467 93.292 33.82 93.9853 34.18C94.692 34.5267 95.5853 34.9067 96.6653 35.32C97.652 35.68 98.5786 36.1067 99.4453 36.6C100.312 37.0933 101.072 37.68 101.725 38.36C102.392 39.0267 102.919 39.8 103.305 40.68C103.692 41.56 103.885 42.56 103.885 43.68C103.885 45.0133 103.612 46.1733 103.065 47.16C102.519 48.1333 101.772 48.94 100.825 49.58C99.892 50.22 98.8253 50.6933 97.6253 51C96.4386 51.32 95.2053 51.48 93.9253 51.48C92.112 51.48 90.4853 51.2733 89.0453 50.86C87.6186 50.4467 86.4653 50 85.5853 49.52C84.7053 49.04 84.1786 48.72 84.0053 48.56L86.9853 43.54C87.1453 43.66 87.452 43.8533 87.9053 44.12C88.372 44.3867 88.9386 44.6667 89.6053 44.96C90.272 45.24 90.9786 45.48 91.7253 45.68C92.4853 45.88 93.232 45.98 93.9653 45.98C95.192 45.98 96.112 45.7467 96.7253 45.28C97.3386 44.8 97.6453 44.1733 97.6453 43.4C97.6453 42.8267 97.452 42.3133 97.0653 41.86C96.6786 41.4067 96.0986 40.98 95.3253 40.58C94.552 40.1667 93.5853 39.7333 92.4253 39.28C91.2653 38.8133 90.1786 38.2467 89.1653 37.58C88.1653 36.9133 87.352 36.08 86.7253 35.08C86.0986 34.08 85.7853 32.84 85.7853 31.36C85.7853 29.88 86.1986 28.6 87.0253 27.52C87.8653 26.4267 88.9653 25.5867 90.3253 25C91.6986 24.4133 93.1653 24.12 94.7253 24.12ZM107.708 51V34.58H113.788V51H107.708ZM110.828 31.2C109.868 31.2 109.055 30.8667 108.388 30.2C107.721 29.52 107.388 28.7133 107.388 27.78C107.388 26.8467 107.721 26.04 108.388 25.36C109.068 24.6667 109.881 24.32 110.828 24.32C111.455 24.32 112.028 24.48 112.548 24.8C113.068 25.1067 113.488 25.52 113.808 26.04C114.128 26.56 114.288 27.14 114.288 27.78C114.288 28.7133 113.948 29.52 113.268 30.2C112.588 30.8667 111.775 31.2 110.828 31.2ZM124.057 51H117.957V23.48H124.057V51ZM126.497 34.58H132.997L136.957 45.48L140.937 34.58H147.397L140.517 51H133.397L126.497 34.58ZM150.052 51V34.58H156.132V51H150.052ZM153.172 31.2C152.212 31.2 151.399 30.8667 150.732 30.2C150.065 29.52 149.732 28.7133 149.732 27.78C149.732 26.8467 150.065 26.04 150.732 25.36C151.412 24.6667 152.225 24.32 153.172 24.32C153.799 24.32 154.372 24.48 154.892 24.8C155.412 25.1067 155.832 25.52 156.152 26.04C156.472 26.56 156.632 27.14 156.632 27.78C156.632 28.7133 156.292 29.52 155.612 30.2C154.932 30.8667 154.119 31.2 153.172 31.2ZM166.081 42.18C166.081 43.4867 166.327 44.5333 166.821 45.32C167.314 46.0933 168.141 46.48 169.301 46.48C170.487 46.48 171.321 46.0933 171.801 45.32C172.294 44.5333 172.541 43.4867 172.541 42.18V34.58H178.541V42.82C178.541 44.58 178.174 46.1133 177.441 47.42C176.721 48.7133 175.674 49.7133 174.301 50.42C172.927 51.1267 171.261 51.48 169.301 51.48C167.354 51.48 165.694 51.1267 164.321 50.42C162.947 49.7133 161.901 48.7133 161.181 47.42C160.461 46.1133 160.101 44.58 160.101 42.82V34.58H166.081V42.18Z" fill="#5DEA72"/>
<path d="M204.855 45.56C206.082 45.56 207.195 45.38 208.195 45.02C209.208 44.66 209.962 44.3067 210.455 43.96L213.015 49.04C212.388 49.5733 211.315 50.1133 209.795 50.66C208.288 51.2067 206.495 51.48 204.415 51.48C202.468 51.48 200.642 51.14 198.935 50.46C197.228 49.78 195.722 48.8267 194.415 47.6C193.122 46.36 192.102 44.9133 191.355 43.26C190.622 41.5933 190.255 39.7867 190.255 37.84C190.255 35.8933 190.622 34.0867 191.355 32.42C192.088 30.74 193.102 29.28 194.395 28.04C195.702 26.8 197.208 25.84 198.915 25.16C200.635 24.4667 202.468 24.12 204.415 24.12C206.495 24.12 208.288 24.3933 209.795 24.94C211.315 25.4867 212.388 26.0267 213.015 26.56L210.455 31.64C209.962 31.28 209.208 30.9267 208.195 30.58C207.195 30.22 206.082 30.04 204.855 30.04C203.495 30.04 202.308 30.2533 201.295 30.68C200.282 31.0933 199.435 31.6667 198.755 32.4C198.075 33.1333 197.568 33.96 197.235 34.88C196.902 35.8 196.735 36.7667 196.735 37.78C196.735 38.8067 196.902 39.7867 197.235 40.72C197.568 41.64 198.075 42.4667 198.755 43.2C199.435 43.9333 200.282 44.5133 201.295 44.94C202.308 45.3533 203.495 45.56 204.855 45.56ZM225.036 51.48C223.236 51.48 221.636 51.1133 220.236 50.38C218.849 49.6333 217.756 48.6133 216.956 47.32C216.169 46.0133 215.776 44.52 215.776 42.84C215.776 41.16 216.169 39.6667 216.956 38.36C217.756 37.04 218.849 36 220.236 35.24C221.636 34.48 223.236 34.1 225.036 34.1C226.836 34.1 228.423 34.48 229.796 35.24C231.169 36 232.243 37.04 233.016 38.36C233.789 39.6667 234.176 41.16 234.176 42.84C234.176 44.52 233.789 46.0133 233.016 47.32C232.243 48.6133 231.169 49.6333 229.796 50.38C228.423 51.1133 226.836 51.48 225.036 51.48ZM225.036 46.48C225.729 46.48 226.329 46.3267 226.836 46.02C227.343 45.7133 227.736 45.28 228.016 44.72C228.296 44.16 228.436 43.5267 228.436 42.82C228.436 42.1 228.296 41.46 228.016 40.9C227.736 40.34 227.343 39.9 226.836 39.58C226.329 39.26 225.729 39.1 225.036 39.1C224.343 39.1 223.736 39.26 223.216 39.58C222.709 39.9 222.309 40.34 222.016 40.9C221.736 41.46 221.596 42.1 221.596 42.82C221.596 43.5267 221.736 44.16 222.016 44.72C222.309 45.28 222.709 45.7133 223.216 46.02C223.736 46.3267 224.343 46.48 225.036 46.48ZM244.7 34.1C245.78 34.1 246.767 34.1933 247.66 34.38C248.553 34.5533 249.3 34.7533 249.9 34.98C250.513 35.2067 250.907 35.3933 251.08 35.54L249.1 39.12C248.847 38.9333 248.373 38.6933 247.68 38.4C247 38.1067 246.24 37.96 245.4 37.96C244.76 37.96 244.22 38.06 243.78 38.26C243.34 38.4467 243.12 38.7467 243.12 39.16C243.12 39.5733 243.36 39.9067 243.84 40.16C244.333 40.4 245.04 40.6133 245.96 40.8C246.76 40.96 247.573 41.2133 248.4 41.56C249.227 41.9067 249.913 42.42 250.46 43.1C251.02 43.7667 251.3 44.66 251.3 45.78C251.3 46.9267 251.053 47.8733 250.56 48.62C250.067 49.3667 249.413 49.9467 248.6 50.36C247.787 50.7733 246.907 51.06 245.96 51.22C245.013 51.3933 244.093 51.48 243.2 51.48C241.947 51.48 240.853 51.3667 239.92 51.14C239 50.9133 238.253 50.6533 237.68 50.36C237.107 50.0667 236.707 49.8333 236.48 49.66L238.44 45.66C238.787 45.9533 239.353 46.2867 240.14 46.66C240.927 47.02 241.76 47.2 242.64 47.2C243.493 47.2 244.153 47.0733 244.62 46.82C245.087 46.5667 245.32 46.2333 245.32 45.82C245.32 45.4867 245.207 45.22 244.98 45.02C244.753 44.82 244.433 44.6467 244.02 44.5C243.607 44.3533 243.107 44.22 242.52 44.1C241.987 43.9933 241.42 43.8267 240.82 43.6C240.22 43.3733 239.653 43.0667 239.12 42.68C238.587 42.28 238.153 41.78 237.82 41.18C237.487 40.58 237.32 39.8533 237.32 39C237.32 37.9067 237.673 37 238.38 36.28C239.087 35.56 240 35.02 241.12 34.66C242.24 34.2867 243.433 34.1 244.7 34.1ZM252.854 34.58H255.654V27.84H261.674V34.58H265.354V39.58H261.674V44.16C261.674 44.84 261.774 45.3933 261.974 45.82C262.174 46.2333 262.541 46.44 263.074 46.44C263.434 46.44 263.741 46.36 263.994 46.2C264.248 46.04 264.401 45.9333 264.454 45.88L266.534 50.2C266.441 50.28 266.148 50.4267 265.654 50.64C265.174 50.8533 264.561 51.0467 263.814 51.22C263.068 51.3933 262.234 51.48 261.314 51.48C259.674 51.48 258.321 51.02 257.254 50.1C256.188 49.1667 255.654 47.7333 255.654 45.8V39.58H252.854V34.58ZM281.525 51V48.34C281.405 48.6067 281.099 48.9933 280.605 49.5C280.125 50.0067 279.485 50.4667 278.685 50.88C277.885 51.28 276.952 51.48 275.885 51.48C274.285 51.48 272.885 51.0933 271.685 50.32C270.485 49.5333 269.552 48.4867 268.885 47.18C268.219 45.86 267.885 44.4 267.885 42.8C267.885 41.2 268.219 39.7467 268.885 38.44C269.552 37.12 270.485 36.0667 271.685 35.28C272.885 34.4933 274.285 34.1 275.885 34.1C276.912 34.1 277.812 34.2667 278.585 34.6C279.359 34.92 279.985 35.3067 280.465 35.76C280.945 36.2 281.279 36.6067 281.465 36.98V34.58H287.505V51H281.525ZM273.845 42.8C273.845 43.5467 274.019 44.22 274.365 44.82C274.712 45.4067 275.172 45.8667 275.745 46.2C276.332 46.5333 276.979 46.7 277.685 46.7C278.419 46.7 279.065 46.5333 279.625 46.2C280.185 45.8667 280.625 45.4067 280.945 44.82C281.279 44.22 281.445 43.5467 281.445 42.8C281.445 42.0533 281.279 41.3867 280.945 40.8C280.625 40.2 280.185 39.7333 279.625 39.4C279.065 39.0533 278.419 38.88 277.685 38.88C276.979 38.88 276.332 39.0533 275.745 39.4C275.172 39.7333 274.712 40.2 274.365 40.8C274.019 41.3867 273.845 42.0533 273.845 42.8ZM300.264 46.7C301.024 46.7 301.65 46.5733 302.144 46.32C302.637 46.0533 302.97 45.84 303.144 45.68L305.924 49.8C305.71 49.9733 305.344 50.2 304.824 50.48C304.304 50.7467 303.65 50.98 302.864 51.18C302.09 51.38 301.204 51.48 300.204 51.48C298.324 51.48 296.67 51.1267 295.244 50.42C293.817 49.7 292.704 48.6867 291.904 47.38C291.117 46.0733 290.724 44.54 290.724 42.78C290.724 41.0067 291.117 39.4733 291.904 38.18C292.704 36.8867 293.817 35.8867 295.244 35.18C296.67 34.46 298.324 34.1 300.204 34.1C301.19 34.1 302.07 34.2067 302.844 34.42C303.63 34.62 304.29 34.8533 304.824 35.12C305.357 35.3733 305.73 35.5933 305.944 35.78L303.104 39.94C303.01 39.8467 302.837 39.7133 302.584 39.54C302.344 39.3667 302.03 39.2133 301.644 39.08C301.257 38.9467 300.797 38.88 300.264 38.88C299.61 38.88 298.997 39.0467 298.424 39.38C297.864 39.7133 297.41 40.1733 297.064 40.76C296.717 41.3467 296.544 42.02 296.544 42.78C296.544 43.54 296.717 44.22 297.064 44.82C297.41 45.4067 297.864 45.8667 298.424 46.2C298.997 46.5333 299.61 46.7 300.264 46.7ZM319.835 34.1C320.982 34.1 322.102 34.3333 323.195 34.8C324.288 35.2667 325.188 36.0067 325.895 37.02C326.602 38.02 326.955 39.34 326.955 40.98V51H320.875V41.98C320.875 40.8067 320.608 39.9267 320.075 39.34C319.555 38.74 318.842 38.44 317.935 38.44C317.335 38.44 316.762 38.6 316.215 38.92C315.668 39.2267 315.222 39.6667 314.875 40.24C314.542 40.8 314.375 41.4467 314.375 42.18V51H308.275V23.48H314.375V37C314.522 36.56 314.848 36.12 315.355 35.68C315.875 35.2267 316.522 34.8533 317.295 34.56C318.082 34.2533 318.928 34.1 319.835 34.1ZM335.383 44.08C335.423 44.6667 335.61 45.1867 335.943 45.64C336.277 46.0933 336.737 46.4533 337.323 46.72C337.923 46.9733 338.63 47.1 339.443 47.1C340.217 47.1 340.91 47.02 341.523 46.86C342.15 46.7 342.69 46.5 343.143 46.26C343.61 46.02 343.97 45.7733 344.223 45.52L346.583 49.28C346.25 49.64 345.777 49.9933 345.163 50.34C344.563 50.6733 343.77 50.9467 342.783 51.16C341.797 51.3733 340.55 51.48 339.043 51.48C337.23 51.48 335.617 51.14 334.203 50.46C332.79 49.78 331.677 48.78 330.863 47.46C330.05 46.14 329.643 44.5267 329.643 42.62C329.643 41.02 329.99 39.58 330.683 38.3C331.39 37.0067 332.41 35.9867 333.743 35.24C335.077 34.48 336.683 34.1 338.563 34.1C340.35 34.1 341.897 34.4267 343.203 35.08C344.523 35.7333 345.537 36.7067 346.243 38C346.963 39.28 347.323 40.88 347.323 42.8C347.323 42.9067 347.317 43.12 347.303 43.44C347.303 43.76 347.29 43.9733 347.263 44.08H335.383ZM341.603 40.9C341.59 40.4733 341.477 40.0533 341.263 39.64C341.05 39.2133 340.73 38.8667 340.303 38.6C339.877 38.32 339.33 38.18 338.663 38.18C337.997 38.18 337.43 38.3133 336.963 38.58C336.51 38.8333 336.163 39.1667 335.923 39.58C335.683 39.9933 335.55 40.4333 335.523 40.9H341.603Z" fill="#F1F1F1"/>
<rect y="36.7696" width="52" height="52" rx="3" transform="rotate(-45 0 36.7696)" fill="#D9D9D9"/>
<rect x="8.35669" y="45.1263" width="40.1818" height="40.1818" rx="3" transform="rotate(-45 8.35669 45.1263)" fill="#777777"/>
<rect x="16.7135" y="53.4831" width="28.3636" height="28.3636" rx="3" transform="rotate(-45 16.7135 53.4831)" fill="#5DEA72"/>
</svg>
