<svg width="413" height="74" viewBox="0 0 413 74" fill="none" xmlns="http://www.w3.org/2000/svg">
<path d="M101.27 18.744C103.238 18.744 104.958 18.96 106.43 19.392C107.902 19.824 109.086 20.28 109.982 20.76C110.878 21.24 111.422 21.56 111.614 21.72L108.158 27.504C107.902 27.312 107.462 27.032 106.838 26.664C106.23 26.296 105.502 25.968 104.654 25.68C103.822 25.392 102.95 25.248 102.038 25.248C100.806 25.248 99.8064 25.472 99.0384 25.92C98.2864 26.352 97.9104 27 97.9104 27.864C97.9104 28.456 98.1104 28.992 98.5104 29.472C98.9264 29.936 99.5504 30.384 100.382 30.816C101.23 31.232 102.302 31.688 103.598 32.184C104.782 32.616 105.894 33.128 106.934 33.72C107.974 34.312 108.886 35.016 109.67 35.832C110.47 36.632 111.102 37.56 111.566 38.616C112.03 39.672 112.262 40.872 112.262 42.216C112.262 43.816 111.934 45.208 111.278 46.392C110.622 47.56 109.726 48.528 108.59 49.296C107.47 50.064 106.19 50.632 104.75 51C103.326 51.384 101.846 51.576 100.31 51.576C98.1344 51.576 96.1824 51.328 94.4544 50.832C92.7424 50.336 91.3584 49.8 90.3024 49.224C89.2464 48.648 88.6144 48.264 88.4064 48.072L91.9824 42.048C92.1744 42.192 92.5424 42.424 93.0864 42.744C93.6464 43.064 94.3264 43.4 95.1264 43.752C95.9264 44.088 96.7744 44.376 97.6704 44.616C98.5824 44.856 99.4784 44.976 100.358 44.976C101.83 44.976 102.934 44.696 103.67 44.136C104.406 43.56 104.774 42.808 104.774 41.88C104.774 41.192 104.542 40.576 104.078 40.032C103.614 39.488 102.918 38.976 101.99 38.496C101.062 38 99.9024 37.48 98.5104 36.936C97.1184 36.376 95.8144 35.696 94.5984 34.896C93.3984 34.096 92.4224 33.096 91.6704 31.896C90.9184 30.696 90.5424 29.208 90.5424 27.432C90.5424 25.656 91.0384 24.12 92.0304 22.824C93.0384 21.512 94.3584 20.504 95.9904 19.8C97.6384 19.096 99.3984 18.744 101.27 18.744ZM116.85 51V31.296H124.146V51H116.85ZM120.594 27.24C119.442 27.24 118.466 26.84 117.666 26.04C116.866 25.224 116.466 24.256 116.466 23.136C116.466 22.016 116.866 21.048 117.666 20.232C118.482 19.4 119.458 18.984 120.594 18.984C121.346 18.984 122.034 19.176 122.658 19.56C123.282 19.928 123.786 20.424 124.17 21.048C124.554 21.672 124.746 22.368 124.746 23.136C124.746 24.256 124.338 25.224 123.522 26.04C122.706 26.84 121.73 27.24 120.594 27.24ZM136.468 51H129.148V17.976H136.468V51ZM139.396 31.296H147.196L151.948 44.376L156.724 31.296H164.476L156.22 51H147.676L139.396 31.296ZM167.662 51V31.296H174.958V51H167.662ZM171.406 27.24C170.254 27.24 169.278 26.84 168.478 26.04C167.678 25.224 167.278 24.256 167.278 23.136C167.278 22.016 167.678 21.048 168.478 20.232C169.294 19.4 170.27 18.984 171.406 18.984C172.158 18.984 172.846 19.176 173.47 19.56C174.094 19.928 174.598 20.424 174.982 21.048C175.366 21.672 175.558 22.368 175.558 23.136C175.558 24.256 175.15 25.224 174.334 26.04C173.518 26.84 172.542 27.24 171.406 27.24ZM186.897 40.416C186.897 41.984 187.193 43.24 187.785 44.184C188.377 45.112 189.369 45.576 190.761 45.576C192.185 45.576 193.185 45.112 193.761 44.184C194.353 43.24 194.649 41.984 194.649 40.416V31.296H201.849V41.184C201.849 43.296 201.409 45.136 200.529 46.704C199.665 48.256 198.409 49.456 196.761 50.304C195.113 51.152 193.113 51.576 190.761 51.576C188.425 51.576 186.433 51.152 184.785 50.304C183.137 49.456 181.881 48.256 181.017 46.704C180.153 45.136 179.721 43.296 179.721 41.184V31.296H186.897V40.416Z" fill="#5DEA72"/>
<path d="M227.526 44.472C228.998 44.472 230.334 44.256 231.534 43.824C232.75 43.392 233.654 42.968 234.246 42.552L237.318 48.648C236.566 49.288 235.278 49.936 233.454 50.592C231.646 51.248 229.494 51.576 226.998 51.576C224.662 51.576 222.47 51.168 220.422 50.352C218.374 49.536 216.566 48.392 214.998 46.92C213.446 45.432 212.222 43.696 211.326 41.712C210.446 39.712 210.006 37.544 210.006 35.208C210.006 32.872 210.446 30.704 211.326 28.704C212.206 26.688 213.422 24.936 214.974 23.448C216.542 21.96 218.35 20.808 220.398 19.992C222.462 19.16 224.662 18.744 226.998 18.744C229.494 18.744 231.646 19.072 233.454 19.728C235.278 20.384 236.566 21.032 237.318 21.672L234.246 27.768C233.654 27.336 232.75 26.912 231.534 26.496C230.334 26.064 228.998 25.848 227.526 25.848C225.894 25.848 224.47 26.104 223.254 26.616C222.038 27.112 221.022 27.8 220.206 28.68C219.39 29.56 218.782 30.552 218.382 31.656C217.982 32.76 217.782 33.92 217.782 35.136C217.782 36.368 217.982 37.544 218.382 38.664C218.782 39.768 219.39 40.76 220.206 41.64C221.022 42.52 222.038 43.216 223.254 43.728C224.47 44.224 225.894 44.472 227.526 44.472ZM251.743 51.576C249.583 51.576 247.663 51.136 245.983 50.256C244.319 49.36 243.007 48.136 242.047 46.584C241.103 45.016 240.631 43.224 240.631 41.208C240.631 39.192 241.103 37.4 242.047 35.832C243.007 34.248 244.319 33 245.983 32.088C247.663 31.176 249.583 30.72 251.743 30.72C253.903 30.72 255.807 31.176 257.455 32.088C259.103 33 260.391 34.248 261.319 35.832C262.247 37.4 262.711 39.192 262.711 41.208C262.711 43.224 262.247 45.016 261.319 46.584C260.391 48.136 259.103 49.36 257.455 50.256C255.807 51.136 253.903 51.576 251.743 51.576ZM251.743 45.576C252.575 45.576 253.295 45.392 253.903 45.024C254.511 44.656 254.983 44.136 255.319 43.464C255.655 42.792 255.823 42.032 255.823 41.184C255.823 40.32 255.655 39.552 255.319 38.88C254.983 38.208 254.511 37.68 253.903 37.296C253.295 36.912 252.575 36.72 251.743 36.72C250.911 36.72 250.183 36.912 249.559 37.296C248.951 37.68 248.471 38.208 248.119 38.88C247.783 39.552 247.615 40.32 247.615 41.184C247.615 42.032 247.783 42.792 248.119 43.464C248.471 44.136 248.951 44.656 249.559 45.024C250.183 45.392 250.911 45.576 251.743 45.576ZM275.34 30.72C276.636 30.72 277.82 30.832 278.892 31.056C279.964 31.264 280.86 31.504 281.58 31.776C282.316 32.048 282.788 32.272 282.996 32.448L280.62 36.744C280.316 36.52 279.748 36.232 278.916 35.88C278.1 35.528 277.188 35.352 276.18 35.352C275.412 35.352 274.764 35.472 274.236 35.712C273.708 35.936 273.444 36.296 273.444 36.792C273.444 37.288 273.732 37.688 274.308 37.992C274.9 38.28 275.748 38.536 276.852 38.76C277.812 38.952 278.788 39.256 279.78 39.672C280.772 40.088 281.596 40.704 282.252 41.52C282.924 42.32 283.26 43.392 283.26 44.736C283.26 46.112 282.964 47.248 282.372 48.144C281.78 49.04 280.996 49.736 280.02 50.232C279.044 50.728 277.988 51.072 276.852 51.264C275.716 51.472 274.612 51.576 273.54 51.576C272.036 51.576 270.724 51.44 269.604 51.168C268.5 50.896 267.604 50.584 266.916 50.232C266.228 49.88 265.748 49.6 265.476 49.392L267.828 44.592C268.244 44.944 268.924 45.344 269.868 45.792C270.812 46.224 271.812 46.44 272.868 46.44C273.892 46.44 274.684 46.288 275.244 45.984C275.804 45.68 276.084 45.28 276.084 44.784C276.084 44.384 275.948 44.064 275.676 43.824C275.404 43.584 275.02 43.376 274.524 43.2C274.028 43.024 273.428 42.864 272.724 42.72C272.084 42.592 271.404 42.392 270.684 42.12C269.964 41.848 269.284 41.48 268.644 41.016C268.004 40.536 267.484 39.936 267.084 39.216C266.684 38.496 266.484 37.624 266.484 36.6C266.484 35.288 266.908 34.2 267.756 33.336C268.604 32.472 269.7 31.824 271.044 31.392C272.388 30.944 273.82 30.72 275.34 30.72ZM285.125 31.296H288.485V23.208H295.709V31.296H300.125V37.296H295.709V42.792C295.709 43.608 295.829 44.272 296.069 44.784C296.309 45.28 296.749 45.528 297.389 45.528C297.821 45.528 298.189 45.432 298.493 45.24C298.797 45.048 298.981 44.92 299.045 44.856L301.541 50.04C301.429 50.136 301.077 50.312 300.485 50.568C299.909 50.824 299.173 51.056 298.277 51.264C297.381 51.472 296.381 51.576 295.277 51.576C293.309 51.576 291.685 51.024 290.405 49.92C289.125 48.8 288.485 47.08 288.485 44.76V37.296H285.125V31.296ZM319.531 51V47.808C319.387 48.128 319.019 48.592 318.427 49.2C317.851 49.808 317.083 50.36 316.123 50.856C315.163 51.336 314.043 51.576 312.763 51.576C310.843 51.576 309.163 51.112 307.723 50.184C306.283 49.24 305.163 47.984 304.363 46.416C303.563 44.832 303.163 43.08 303.163 41.16C303.163 39.24 303.563 37.496 304.363 35.928C305.163 34.344 306.283 33.08 307.723 32.136C309.163 31.192 310.843 30.72 312.763 30.72C313.995 30.72 315.075 30.92 316.003 31.32C316.931 31.704 317.683 32.168 318.259 32.712C318.835 33.24 319.235 33.728 319.459 34.176V31.296H326.707V51H319.531ZM310.315 41.16C310.315 42.056 310.523 42.864 310.939 43.584C311.355 44.288 311.907 44.84 312.595 45.24C313.299 45.64 314.075 45.84 314.923 45.84C315.803 45.84 316.579 45.64 317.251 45.24C317.923 44.84 318.451 44.288 318.835 43.584C319.235 42.864 319.435 42.056 319.435 41.16C319.435 40.264 319.235 39.464 318.835 38.76C318.451 38.04 317.923 37.48 317.251 37.08C316.579 36.664 315.803 36.456 314.923 36.456C314.075 36.456 313.299 36.664 312.595 37.08C311.907 37.48 311.355 38.04 310.939 38.76C310.523 39.464 310.315 40.264 310.315 41.16ZM342.016 45.84C342.928 45.84 343.68 45.688 344.272 45.384C344.864 45.064 345.264 44.808 345.472 44.616L348.808 49.56C348.552 49.768 348.112 50.04 347.488 50.376C346.864 50.696 346.08 50.976 345.136 51.216C344.208 51.456 343.144 51.576 341.944 51.576C339.688 51.576 337.704 51.152 335.992 50.304C334.28 49.44 332.944 48.224 331.984 46.656C331.04 45.088 330.568 43.248 330.568 41.136C330.568 39.008 331.04 37.168 331.984 35.616C332.944 34.064 334.28 32.864 335.992 32.016C337.704 31.152 339.688 30.72 341.944 30.72C343.128 30.72 344.184 30.848 345.112 31.104C346.056 31.344 346.848 31.624 347.488 31.944C348.128 32.248 348.576 32.512 348.832 32.736L345.424 37.728C345.312 37.616 345.104 37.456 344.8 37.248C344.512 37.04 344.136 36.856 343.672 36.696C343.208 36.536 342.656 36.456 342.016 36.456C341.232 36.456 340.496 36.656 339.808 37.056C339.136 37.456 338.592 38.008 338.176 38.712C337.76 39.416 337.552 40.224 337.552 41.136C337.552 42.048 337.76 42.864 338.176 43.584C338.592 44.288 339.136 44.84 339.808 45.24C340.496 45.64 341.232 45.84 342.016 45.84ZM365.502 30.72C366.878 30.72 368.222 31 369.534 31.56C370.846 32.12 371.926 33.008 372.774 34.224C373.622 35.424 374.046 37.008 374.046 38.976V51H366.75V40.176C366.75 38.768 366.43 37.712 365.79 37.008C365.166 36.288 364.31 35.928 363.222 35.928C362.502 35.928 361.814 36.12 361.158 36.504C360.502 36.872 359.966 37.4 359.55 38.088C359.15 38.76 358.95 39.536 358.95 40.416V51H351.63V17.976H358.95V34.2C359.126 33.672 359.518 33.144 360.126 32.616C360.75 32.072 361.526 31.624 362.454 31.272C363.398 30.904 364.414 30.72 365.502 30.72ZM384.16 42.696C384.208 43.4 384.432 44.024 384.832 44.568C385.232 45.112 385.784 45.544 386.488 45.864C387.208 46.168 388.056 46.32 389.032 46.32C389.96 46.32 390.792 46.224 391.528 46.032C392.28 45.84 392.928 45.6 393.472 45.312C394.032 45.024 394.464 44.728 394.768 44.424L397.6 48.936C397.2 49.368 396.632 49.792 395.896 50.208C395.176 50.608 394.224 50.936 393.04 51.192C391.856 51.448 390.36 51.576 388.552 51.576C386.376 51.576 384.44 51.168 382.744 50.352C381.048 49.536 379.712 48.336 378.736 46.752C377.76 45.168 377.272 43.232 377.272 40.944C377.272 39.024 377.688 37.296 378.52 35.76C379.368 34.208 380.592 32.984 382.192 32.088C383.792 31.176 385.72 30.72 387.976 30.72C390.12 30.72 391.976 31.112 393.544 31.896C395.128 32.68 396.344 33.848 397.192 35.4C398.056 36.936 398.488 38.856 398.488 41.16C398.488 41.288 398.48 41.544 398.464 41.928C398.464 42.312 398.448 42.568 398.416 42.696H384.16ZM391.624 38.88C391.608 38.368 391.472 37.864 391.216 37.368C390.96 36.856 390.576 36.44 390.064 36.12C389.552 35.784 388.896 35.616 388.096 35.616C387.296 35.616 386.616 35.776 386.056 36.096C385.512 36.4 385.096 36.8 384.808 37.296C384.52 37.792 384.36 38.32 384.328 38.88H391.624Z" fill="#D9D9D9"/>
<rect y="36.7695" width="52" height="52" rx="3" transform="rotate(-45 0 36.7695)" fill="#D9D9D9"/>
<rect x="8.35669" y="45.1262" width="40.1818" height="40.1818" rx="3" transform="rotate(-45 8.35669 45.1262)" fill="#777777"/>
<rect x="16.7135" y="53.4831" width="28.3636" height="28.3636" rx="3" transform="rotate(-45 16.7135 53.4831)" fill="#5DEA72"/>
</svg>
