<svg width="374" height="65" viewBox="0 0 374 65" fill="none" xmlns="http://www.w3.org/2000/svg">
<path d="M82.3914 19.104C84.097 19.104 85.5805 19.2975 86.8419 19.6845C88.1175 20.0572 89.128 20.4585 89.8734 20.8885C90.633 21.3185 91.0917 21.598 91.2494 21.727L88.6264 26.0915C88.397 25.9052 88.0029 25.6472 87.4439 25.3175C86.8992 24.9735 86.2399 24.6725 85.4659 24.4145C84.6919 24.1422 83.8534 24.006 82.9504 24.006C81.646 24.006 80.5997 24.2568 79.8114 24.7585C79.0374 25.2458 78.6504 25.9553 78.6504 26.887C78.6504 27.5177 78.8582 28.0838 79.2739 28.5855C79.6895 29.0728 80.2987 29.5315 81.1014 29.9615C81.9184 30.3915 82.9145 30.843 84.0899 31.316C85.1219 31.7173 86.1037 32.1832 87.0354 32.7135C87.9814 33.2438 88.8199 33.8673 89.5509 34.584C90.2962 35.3007 90.8839 36.132 91.3139 37.078C91.7582 38.024 91.9804 39.1062 91.9804 40.3245C91.9804 41.6862 91.7009 42.8758 91.1419 43.8935C90.5972 44.9112 89.8375 45.764 88.8629 46.452C87.9025 47.14 86.7989 47.656 85.5519 48C84.3049 48.344 82.9934 48.516 81.6174 48.516C79.754 48.516 78.077 48.301 76.5864 47.871C75.11 47.4267 73.9132 46.9537 72.9959 46.452C72.0785 45.9503 71.541 45.6278 71.3834 45.4845L74.1354 40.948C74.3074 41.077 74.6299 41.2848 75.1029 41.5715C75.5902 41.8582 76.1779 42.152 76.8659 42.453C77.5682 42.754 78.3279 43.012 79.1449 43.227C79.9762 43.442 80.8219 43.5495 81.6819 43.5495C83.2299 43.5495 84.398 43.227 85.1864 42.582C85.9747 41.937 86.3689 41.0985 86.3689 40.0665C86.3689 39.2925 86.118 38.6117 85.6164 38.024C85.1147 37.4363 84.4052 36.8988 83.4879 36.4115C82.5849 35.9098 81.5027 35.401 80.2414 34.885C78.98 34.3547 77.8047 33.7383 76.7154 33.036C75.6404 32.3193 74.7732 31.445 74.1139 30.413C73.4545 29.3667 73.1249 28.0838 73.1249 26.5645C73.1249 25.0595 73.5477 23.748 74.3934 22.63C75.2534 21.512 76.3857 20.6448 77.7904 20.0285C79.2094 19.4122 80.743 19.104 82.3914 19.104ZM96.446 48V30.3485H101.885V48H96.446ZM99.241 25.7905C98.338 25.7905 97.5712 25.4752 96.9405 24.8445C96.3242 24.2138 96.016 23.4613 96.016 22.587C96.016 21.7127 96.3313 20.953 96.962 20.308C97.5927 19.663 98.3523 19.3405 99.241 19.3405C99.8287 19.3405 100.366 19.491 100.853 19.792C101.341 20.0787 101.735 20.4657 102.036 20.953C102.337 21.4403 102.487 21.985 102.487 22.587C102.487 23.4613 102.165 24.2138 101.52 24.8445C100.889 25.4752 100.13 25.7905 99.241 25.7905ZM112.379 48H106.896V18.416H112.379V48ZM115.36 30.3485H121.208L126.045 43.012L130.883 30.3485H136.709L129.249 48H122.842L115.36 30.3485ZM139.992 48V30.3485H145.431V48H139.992ZM142.787 25.7905C141.884 25.7905 141.117 25.4752 140.486 24.8445C139.87 24.2138 139.562 23.4613 139.562 22.587C139.562 21.7127 139.877 20.953 140.508 20.308C141.139 19.663 141.898 19.3405 142.787 19.3405C143.375 19.3405 143.912 19.491 144.399 19.792C144.887 20.0787 145.281 20.4657 145.582 20.953C145.883 21.4403 146.033 21.985 146.033 22.587C146.033 23.4613 145.711 24.2138 145.066 24.8445C144.435 25.4752 143.676 25.7905 142.787 25.7905ZM155.559 38.798C155.559 40.3747 155.874 41.636 156.505 42.582C157.136 43.5137 158.153 43.9795 159.558 43.9795C160.977 43.9795 162.002 43.5137 162.632 42.582C163.263 41.636 163.578 40.3747 163.578 38.798V30.3485H168.953V39.4215C168.953 41.2418 168.588 42.84 167.857 44.216C167.126 45.5777 166.058 46.6383 164.653 47.398C163.263 48.1433 161.565 48.516 159.558 48.516C157.566 48.516 155.867 48.1433 154.462 47.398C153.072 46.6383 152.011 45.5777 151.28 44.216C150.549 42.84 150.184 41.2418 150.184 39.4215V30.3485H155.559V38.798Z" fill="black"/>
<path d="M197.861 43.2055C199.351 43.2055 200.677 42.9977 201.838 42.582C202.999 42.152 203.852 41.7292 204.397 41.3135L206.697 45.893C206.038 46.4663 204.898 47.0468 203.279 47.6345C201.673 48.2222 199.753 48.516 197.517 48.516C195.424 48.516 193.467 48.1505 191.647 47.4195C189.827 46.6742 188.229 45.6422 186.853 44.3235C185.477 42.9905 184.402 41.4353 183.628 39.658C182.854 37.8663 182.467 35.9313 182.467 33.853C182.467 31.7747 182.846 29.8397 183.606 28.048C184.38 26.242 185.455 24.6725 186.831 23.3395C188.207 22.0065 189.805 20.9673 191.626 20.222C193.46 19.4767 195.424 19.104 197.517 19.104C199.753 19.104 201.673 19.3978 203.279 19.9855C204.898 20.5732 206.038 21.1537 206.697 21.727L204.397 26.3065C203.852 25.8908 202.999 25.4752 201.838 25.0595C200.677 24.6295 199.351 24.4145 197.861 24.4145C196.341 24.4145 194.987 24.6582 193.797 25.1455C192.622 25.6328 191.618 26.3137 190.787 27.188C189.97 28.048 189.347 29.0442 188.917 30.1765C188.487 31.3088 188.272 32.5128 188.272 33.7885C188.272 35.0785 188.487 36.2968 188.917 37.4435C189.347 38.5758 189.97 39.5792 190.787 40.4535C191.618 41.3135 192.622 41.9872 193.797 42.4745C194.987 42.9618 196.341 43.2055 197.861 43.2055ZM219.453 48.516C217.575 48.516 215.898 48.1147 214.422 47.312C212.96 46.5093 211.813 45.4128 210.982 44.0225C210.151 42.6178 209.735 41.0197 209.735 39.228C209.735 37.4363 210.151 35.8382 210.982 34.4335C211.813 33.0145 212.96 31.8965 214.422 31.0795C215.898 30.2482 217.575 29.8325 219.453 29.8325C221.345 29.8325 223.015 30.2482 224.463 31.0795C225.91 31.8965 227.043 33.0145 227.86 34.4335C228.677 35.8382 229.085 37.4363 229.085 39.228C229.085 41.0197 228.677 42.6178 227.86 44.0225C227.043 45.4128 225.91 46.5093 224.463 47.312C223.015 48.1147 221.345 48.516 219.453 48.516ZM219.453 43.9795C220.356 43.9795 221.137 43.7788 221.797 43.3775C222.47 42.9618 222.986 42.3957 223.345 41.679C223.717 40.948 223.904 40.1238 223.904 39.2065C223.904 38.2892 223.717 37.465 223.345 36.734C222.986 36.003 222.47 35.4297 221.797 35.014C221.137 34.584 220.356 34.369 219.453 34.369C218.55 34.369 217.762 34.584 217.088 35.014C216.429 35.4297 215.913 36.003 215.54 36.734C215.167 37.465 214.981 38.2892 214.981 39.2065C214.981 40.1238 215.167 40.948 215.54 41.679C215.913 42.3957 216.429 42.9618 217.088 43.3775C217.762 43.7788 218.55 43.9795 219.453 43.9795ZM240.168 29.8325C241.229 29.8325 242.21 29.9328 243.113 30.1335C244.016 30.3198 244.776 30.5348 245.392 30.7785C246.023 31.0222 246.439 31.23 246.639 31.402L244.769 34.6915C244.482 34.4622 243.966 34.1898 243.221 33.8745C242.49 33.5592 241.673 33.4015 240.77 33.4015C239.953 33.4015 239.265 33.5448 238.706 33.8315C238.147 34.1038 237.867 34.5195 237.867 35.0785C237.867 35.6375 238.168 36.0818 238.77 36.4115C239.372 36.7412 240.211 37.0278 241.286 37.2715C242.189 37.4578 243.078 37.7445 243.952 38.1315C244.826 38.5042 245.55 39.0488 246.123 39.7655C246.697 40.4678 246.983 41.4067 246.983 42.582C246.983 43.743 246.733 44.7105 246.231 45.4845C245.744 46.2442 245.091 46.8462 244.274 47.2905C243.457 47.7348 242.562 48.0502 241.587 48.2365C240.612 48.4228 239.645 48.516 238.684 48.516C237.437 48.516 236.341 48.3942 235.395 48.1505C234.449 47.9212 233.668 47.656 233.051 47.355C232.449 47.0397 232.019 46.7745 231.761 46.5595L233.632 42.9045C234.005 43.2342 234.614 43.5997 235.459 44.001C236.319 44.388 237.244 44.5815 238.233 44.5815C239.265 44.5815 240.075 44.4023 240.662 44.044C241.264 43.6857 241.565 43.2055 241.565 42.6035C241.565 42.1592 241.422 41.8008 241.135 41.5285C240.849 41.2418 240.455 41.0053 239.953 40.819C239.451 40.6327 238.864 40.4678 238.19 40.3245C237.574 40.1955 236.943 40.0092 236.298 39.7655C235.653 39.5075 235.051 39.1707 234.492 38.755C233.933 38.3393 233.481 37.8233 233.137 37.207C232.793 36.5763 232.621 35.8238 232.621 34.9495C232.621 33.8315 232.98 32.8998 233.696 32.1545C234.413 31.3948 235.345 30.8215 236.491 30.4345C237.638 30.0332 238.864 29.8325 240.168 29.8325ZM249.008 30.3485H252.19V23.103H257.608V30.3485H261.779V34.885H257.608V41.2705C257.608 42.1162 257.744 42.7755 258.017 43.2485C258.289 43.7072 258.719 43.9365 259.307 43.9365C259.751 43.9365 260.116 43.8505 260.403 43.6785C260.69 43.4922 260.862 43.3632 260.919 43.2915L262.854 47.2045C262.768 47.2905 262.489 47.441 262.016 47.656C261.557 47.871 260.962 48.0645 260.231 48.2365C259.514 48.4228 258.705 48.516 257.802 48.516C256.182 48.516 254.842 48.0502 253.781 47.1185C252.72 46.1725 252.19 44.7105 252.19 42.7325V34.885H249.008V30.3485ZM279.477 48V44.9255C279.348 45.2408 279.019 45.6852 278.488 46.2585C277.958 46.8318 277.241 47.355 276.338 47.828C275.45 48.2867 274.403 48.516 273.199 48.516C271.508 48.516 270.01 48.1147 268.706 47.312C267.402 46.495 266.377 45.3842 265.631 43.9795C264.9 42.5605 264.535 40.9623 264.535 39.185C264.535 37.4077 264.9 35.8167 265.631 34.412C266.377 32.993 267.402 31.875 268.706 31.058C270.01 30.241 271.508 29.8325 273.199 29.8325C274.375 29.8325 275.392 30.0332 276.252 30.4345C277.127 30.8215 277.829 31.2802 278.359 31.8105C278.904 32.3265 279.255 32.7923 279.413 33.208V30.3485H284.831V48H279.477ZM269.888 39.185C269.888 40.174 270.111 41.0483 270.555 41.808C270.999 42.5533 271.587 43.1338 272.318 43.5495C273.049 43.9652 273.844 44.173 274.704 44.173C275.607 44.173 276.41 43.9652 277.112 43.5495C277.815 43.1195 278.367 42.5318 278.768 41.7865C279.184 41.0268 279.391 40.1597 279.391 39.185C279.391 38.2103 279.184 37.3503 278.768 36.605C278.367 35.8453 277.815 35.2505 277.112 34.8205C276.41 34.3905 275.607 34.1755 274.704 34.1755C273.844 34.1755 273.049 34.3905 272.318 34.8205C271.587 35.2362 270.999 35.8238 270.555 36.5835C270.111 37.3288 269.888 38.196 269.888 39.185ZM298.408 44.173C299.34 44.173 300.1 44.0153 300.687 43.7C301.275 43.3847 301.662 43.1482 301.848 42.9905L304.385 46.753C304.185 46.9107 303.812 47.1328 303.267 47.4195C302.723 47.7062 302.028 47.957 301.182 48.172C300.351 48.4013 299.397 48.516 298.322 48.516C296.459 48.516 294.789 48.1433 293.313 47.398C291.837 46.6383 290.668 45.5633 289.808 44.173C288.963 42.7683 288.54 41.0985 288.54 39.1635C288.54 37.2142 288.963 35.5443 289.808 34.154C290.668 32.7637 291.837 31.6958 293.313 30.9505C294.789 30.2052 296.459 29.8325 298.322 29.8325C299.383 29.8325 300.322 29.9472 301.139 30.1765C301.97 30.4058 302.665 30.671 303.224 30.972C303.783 31.2587 304.17 31.4952 304.385 31.6815L301.784 35.4655C301.684 35.3508 301.49 35.1932 301.203 34.9925C300.917 34.7918 300.537 34.6055 300.064 34.4335C299.605 34.2615 299.053 34.1755 298.408 34.1755C297.62 34.1755 296.868 34.3833 296.151 34.799C295.449 35.2147 294.875 35.7952 294.431 36.5405C293.987 37.2858 293.764 38.1602 293.764 39.1635C293.764 40.1668 293.987 41.0483 294.431 41.808C294.875 42.5533 295.449 43.1338 296.151 43.5495C296.868 43.9652 297.62 44.173 298.408 44.173ZM318.871 29.8325C320.075 29.8325 321.25 30.0833 322.397 30.585C323.544 31.0723 324.483 31.8535 325.214 32.9285C325.959 34.0035 326.332 35.4082 326.332 37.1425V48H320.849V38.0885C320.849 36.6408 320.519 35.5658 319.86 34.8635C319.215 34.1612 318.348 33.81 317.259 33.81C316.528 33.81 315.825 34.0107 315.152 34.412C314.492 34.799 313.948 35.3437 313.518 36.046C313.102 36.734 312.894 37.5223 312.894 38.411V48H307.412V18.416H312.894V33.165C313.037 32.6777 313.389 32.176 313.948 31.66C314.507 31.144 315.216 30.714 316.076 30.37C316.936 30.0117 317.868 29.8325 318.871 29.8325ZM334.698 40.389C334.741 41.1917 334.956 41.9083 335.343 42.539C335.73 43.1697 336.289 43.6642 337.02 44.0225C337.765 44.3808 338.654 44.56 339.686 44.56C340.617 44.56 341.434 44.4453 342.137 44.216C342.853 43.9867 343.455 43.7072 343.943 43.3775C344.444 43.0335 344.817 42.7038 345.061 42.3885L347.318 45.7425C346.917 46.2442 346.379 46.71 345.706 47.14C345.046 47.5557 344.201 47.8853 343.169 48.129C342.151 48.387 340.875 48.516 339.342 48.516C337.407 48.516 335.708 48.1362 334.246 47.3765C332.784 46.6168 331.645 45.5203 330.828 44.087C330.011 42.6537 329.602 40.948 329.602 38.97C329.602 37.25 329.968 35.702 330.699 34.326C331.43 32.9357 332.49 31.8392 333.881 31.0365C335.285 30.2338 336.97 29.8325 338.933 29.8325C340.782 29.8325 342.38 30.1908 343.728 30.9075C345.089 31.6098 346.143 32.6418 346.888 34.0035C347.634 35.3652 348.006 37.0278 348.006 38.9915C348.006 39.1062 347.999 39.3427 347.985 39.701C347.985 40.045 347.97 40.2743 347.942 40.389H334.698ZM342.889 37.0135C342.875 36.5548 342.732 36.0603 342.459 35.53C342.201 34.9997 341.793 34.5482 341.234 34.1755C340.675 33.8028 339.929 33.6165 338.998 33.6165C338.066 33.6165 337.299 33.7957 336.697 34.154C336.11 34.5123 335.665 34.9567 335.364 35.487C335.063 36.003 334.891 36.5118 334.848 37.0135H342.889Z" fill="black"/>
<path d="M53.9805 19.1543V46.8457L30 60.6904L6.01953 46.8457V19.1543L30 5.30957L53.9805 19.1543Z" stroke="black" stroke-width="4"/>
<path d="M44 0L27.5862 35H16L44 0Z" fill="black"/>
<path d="M16 65L32.4138 30H44L16 65Z" fill="black"/>
</svg>
